#!OML:ASF F:\VICON\USERDATA\INSTALL\rory3\rory3.ASF
:FULLY-SPECIFIED
:DEGREES
404
root 13.4017 15.7691 -11.7309 -188.55 58.1952 -188.416
lowerback 8.77324 0.0222247 -4.88774
upperback -0.573338 -0.513073 -1.06612
thorax -5.49791 -0.112444 1.70247
lowerneck -11.0147 -8.55599 -12.6367
upperneck 24.3443 -11.2534 9.68098
head 10.9655 -5.05404 4.138
rclavicle -2.67195e-014 -1.40889e-014
rhumerus -37.5684 2.10729 -87.4708
rradius 33.033
rwrist 5.81481
rhand -18.3545 13.7664
rfingers 7.12502
rthumb 7.92824 -16.0649
lclavicle -2.67195e-014 -1.40889e-014
lhumerus -29.7342 3.11256 82.0164
lradius 29.6723
lwrist 1.39861
lhand -12.9141 12.6143
lfingers 7.12502
lthumb 13.176 42.178
rfemur -27.252 -1.1111 19.9762
rtibia 38.2716
rfoot -16.6043 -22.313
rtoes -9.69281
lfemur -2.1633 -4.28861 -32.086
ltibia 22.6198
lfoot -17.2037 16.1001
ltoes -5.02877
405
root 13.4615 15.7833 -11.7802 -188.874 58.3252 -188.632
lowerback 8.87546 0.000792952 -4.96027
upperback -0.490147 -0.551558 -1.08886
thorax -5.46527 -0.13066 1.72498
lowerneck -10.9984 -8.5485 -12.5768
upperneck 24.3199 -11.2414 9.61876
head 10.9433 -5.05168 4.10692
rclavicle 9.33139e-014 1.97542e-015
rhumerus -37.5367 2.13657 -87.4246
rradius 33.0813
rwrist 5.918
rhand -18.3233 13.359
rfingers 7.12502
rthumb 7.95827 -16.4712
lclavicle 9.33139e-014 1.97542e-015
lhumerus -29.5958 2.54557 82.3354
lradius 29.9637
lwrist 1.9362
lhand -12.9079 12.7977
lfingers 7.12502
lthumb 13.1819 42.361
rfemur -27.2379 -0.94279 20.04
rtibia 36.8753
rfoot -17.3143 -22.9468
rtoes -7.9984
lfemur -1.04412 -4.2624 -32.2863
ltibia 21.3474
lfoot -16.7809 16.3565
ltoes -5.38716
406
root 13.5279 15.7987 -11.8268 -189.199 58.3683 -189.125
lowerback 8.69421 -0.011957 -5.22836
upperback -0.469803 -0.585253 -1.1631
thorax -5.33793 -0.142876 1.80086
lowerneck -10.9539 -8.59348 -12.6357
upperneck 24.3258 -11.3163 9.69001
head 10.9556 -5.08445 4.13273
rclavicle 6.44489e-014 2.10339e-014
rhumerus -37.7172 2.18939 -87.44
rradius 33.5517
rwrist 5.84978
rhand -18.0998 12.7232
rfingers 7.12502
rthumb 8.17399 -17.0987
lclavicle 6.44489e-014 2.10339e-014
lhumerus -29.4299 2.13382 82.5638
lradius 30.157
lwrist 2.3511
lhand -12.5686 12.7104
lfingers 7.12502
lthumb 13.509 42.2522
rfemur -27.4739 -0.823635 19.9121
rtibia 35.6296
rfoot -18.2811 -23.4346
rtoes -5.06446
lfemur -0.120158 -4.2291 -32.6038
ltibia 19.9786
lfoot -16.2402 16.5542
ltoes -6.02218
407
root 13.5962 15.8064 -11.8713 -189.853 58.448 -190.169
lowerback 8.35845 0.0333182 -5.77514
upperback -0.486105 -0.561028 -1.35095
thorax -5.16518 -0.119814 1.90542
lowerneck -10.9504 -8.6642 -12.635
upperneck 24.3647 -11.4423 9.77751
head 10.992 -5.13083 4.14617
rclavicle 5.3098e-014 -6.48224e-015
rhumerus -37.9292 1.98998 -87.3924
rradius 33.9701
rwrist 5.95879
rhand -17.8314 12.4187
rfingers 7.12502
rthumb 8.43308 -17.3929
lclavicle 5.3098e-014 -6.48224e-015
lhumerus -29.2184 2.05226 82.6321
lradius 30.2939
lwrist 2.50083
lhand -12.0096 12.389
lfingers 7.12502
lthumb 14.0478 41.8943
rfemur -27.9794 -0.927845 19.551
rtibia 34.5204
rfoot -18.5818 -24.1087
rtoes -3.51959
lfemur 0.680768 -4.17286 -33.2099
ltibia 18.528
lfoot -15.6252 16.7731
ltoes -6.51294
408
root 13.6627 15.8131 -11.9174 -190.378 58.5597 -190.92
lowerback 8.17289 0.0616592 -6.10782
upperback -0.488879 -0.544272 -1.50486
thorax -5.06383 -0.104944 1.92744
lowerneck -10.8694 -8.70013 -12.6004
upperneck 24.3159 -11.53 9.86631
head 10.9729 -5.16068 4.16152
rclavicle -7.87816e-014 -1.69588e-014
rhumerus -37.8867 1.63729 -87.2551
rradius 33.7118
rwrist 6.20039
rhand -17.6115 12.9624
rfingers 7.12502
rthumb 8.64527 -16.8406
lclavicle -7.87816e-014 -1.69588e-014
lhumerus -29.0484 1.84187 82.7943
lradius 30.3793
lwrist 2.49729
lhand -11.9546 12.3689
lfingers 7.12502
lthumb 14.1007 41.8705
rfemur -28.396 -1.10139 19.3895
rtibia 33.5217
rfoot -18.5169 -25.1491
rtoes -2.95219
lfemur 1.61286 -4.04873 -33.645
ltibia 17.052
lfoot -15.0792 16.9171
ltoes -6.76045
